HIERARCHY
ROOT Hips
{
	OFFSET -0.001795 -0.223333 0.028219
	CHANNELS 6 Xposition Yposition Zposition Zrotation Yrotation Xrotation 
	JOINT LeftUpLeg
	{
		OFFSET 0.069520 -0.091406 -0.006815
		CHANNELS 3 Zrotation Yrotation Xrotation
		JOINT LeftLeg
		{
			OFFSET 0.034277 -0.375199 -0.004496
			CHANNELS 3 Zrotation Yrotation Xrotation
			JOINT LeftFoot
			{
				OFFSET -0.013596 -0.397961 -0.043693
				CHANNELS 3 Zrotation Yrotation Xrotation
				JOINT LeftToe
				{
					OFFSET 0.026358 -0.055791 0.119288
					CHANNELS 3 Zrotation Yrotation Xrotation
					End Site
					{
						OFFSET 0.000000 0.000000 0.000000
					}
				}
			}
		}
	}
	JOINT RightUpLeg
	{
		OFFSET -0.067670 -0.090522 -0.004320
		CHANNELS 3 Zrotation Yrotation Xrotation
		JOINT RightLeg
		{
			OFFSET -0.038290 -0.382569 -0.008850
			CHANNELS 3 Zrotation Yrotation Xrotation
			JOINT RightFoot
			{
				OFFSET 0.015774 -0.398415 -0.042312
				CHANNELS 3 Zrotation Yrotation Xrotation
				JOINT RightToe
				{
					OFFSET -0.025372 -0.048144 0.123348
					CHANNELS 3 Zrotation Yrotation Xrotation
					End Site
					{
						OFFSET 0.000000 0.000000 0.000000
					}
				}
			}
		}
	}
	JOINT Spine
	{
		OFFSET -0.002533 0.108963 -0.026696
		CHANNELS 3 Zrotation Yrotation Xrotation
		JOINT Spine1
		{
			OFFSET 0.005487 0.135180 0.001092
			CHANNELS 3 Zrotation Yrotation Xrotation
			JOINT Spine2
			{
				OFFSET 0.001457 0.052922 0.025425
				CHANNELS 3 Zrotation Yrotation Xrotation
				JOINT Neck
				{
					OFFSET -0.002778 0.213870 -0.042857
					CHANNELS 3 Zrotation Yrotation Xrotation
					JOINT Head
					{
						OFFSET 0.005152 0.064970 0.051349
						CHANNELS 3 Zrotation Yrotation Xrotation
						End Site
						{
							OFFSET 0.000000 0.000000 0.000000
						}
					}
				}
				JOINT LeftShoulder
				{
					OFFSET 0.078845 0.121749 -0.034090
					CHANNELS 3 Zrotation Yrotation Xrotation
					JOINT LeftArm
					{
						OFFSET 0.090977 0.030469 -0.008868
						CHANNELS 3 Zrotation Yrotation Xrotation
						JOINT LeftForeArm
						{
							OFFSET 0.259612 -0.012772 -0.027456
							CHANNELS 3 Zrotation Yrotation Xrotation
							JOINT LeftHand
							{
								OFFSET 0.249234 0.008986 -0.001171
								CHANNELS 3 Zrotation Yrotation Xrotation
								End Site
								{
									OFFSET 0.000000 0.000000 0.000000
								}
							}
						}
					}
				}
				JOINT RightShoulder
				{
					OFFSET -0.081759 0.118833 -0.038615
					CHANNELS 3 Zrotation Yrotation Xrotation
					JOINT RightArm
					{
						OFFSET -0.096012 0.032551 -0.009143
						CHANNELS 3 Zrotation Yrotation Xrotation
						JOINT RightForeArm
						{
							OFFSET -0.253742 -0.013329 -0.021401
							CHANNELS 3 Zrotation Yrotation Xrotation
							JOINT RightHand
							{
								OFFSET -0.255298 0.007772 -0.005559
								CHANNELS 3 Zrotation Yrotation Xrotation
								End Site
								{
									OFFSET 0.000000 0.000000 0.000000
								}
							}
						}
					}
				}
			}
		}
	}
}
MOTION
Frames: 10
Frame Time: 0.050000
0.000000 0.940827 0.000000 5.751973 12.147778 26.974750 6.528991 -2.198780 -26.828980 -2.003626 0.104388 1.658982 4.563492 14.927175 17.898515 0.000000 0.000000 0.000000 -12.545563 -1.771580 -39.359714 0.569834 0.058057 15.902700 0.309503 -0.877700 6.050372 0.000000 0.000000 0.000000 10.989765 -6.279495 27.708252 3.251576 -0.922096 -6.940943 4.024190 3.449271 15.942901 7.910887 -2.535282 -18.130010 0.000000 0.000000 0.000000 -8.991910 -11.207701 3.251965 -58.618705 -22.515565 2.802089 -33.994811 -62.984932 23.218993 0.000000 0.000000 0.000000 -3.836060 12.508343 4.627384 39.779854 50.767711 13.661037 -31.498301 30.238587 -5.370644 0.000000 0.000000 0.000000 
-0.001687 0.942621 -0.000191 4.967006 11.796122 27.323283 7.514622 -2.019318 -26.429030 -0.789931 0.071692 -0.563741 3.648987 13.864324 19.298662 0.000000 0.000000 0.000000 -11.708640 -1.461004 -39.819037 0.675113 0.064334 14.182363 1.439388 1.130911 7.528782 0.000000 0.000000 0.000000 12.076707 -6.476413 26.868721 3.337156 -1.010584 -6.332822 3.908221 2.907385 16.273606 5.760559 -1.806858 -15.144406 0.000000 0.000000 0.000000 -9.942688 -8.679592 2.126612 -55.853785 -20.722974 1.802588 -39.667563 -62.553338 26.872785 0.000000 0.000000 0.000000 -3.723080 13.993008 5.222402 40.268109 51.421265 13.870188 -34.822067 31.827475 -6.435977 0.000000 0.000000 0.000000 
-0.003000 0.940395 -0.000658 4.680720 10.935193 27.320060 7.328157 -2.042070 -27.173753 -1.196713 0.054414 1.182359 3.076759 12.439364 16.888638 0.000000 0.000000 0.000000 -11.118410 -1.214463 -40.877009 0.000351 0.258518 15.805166 1.733424 2.326779 5.762324 0.000000 0.000000 0.000000 11.345781 -6.168214 27.126624 2.764872 -0.892449 -5.039805 4.758494 2.529846 14.810780 6.378177 -3.171416 -9.776052 0.000000 0.000000 0.000000 -10.279315 -7.841971 1.850028 -55.829954 -20.897495 2.086347 -41.508366 -63.371450 28.795227 0.000000 0.000000 0.000000 0.837138 13.837732 5.864684 35.025779 51.025330 10.808232 -31.222917 35.279063 -6.356851 0.000000 0.000000 0.000000 
-0.004172 0.942072 -0.001330 4.759529 10.716377 27.355867 6.565914 -2.148834 -27.415027 0.490771 -0.126107 1.878900 3.347391 12.752837 16.495768 0.000000 0.000000 0.000000 -11.179491 -1.231023 -41.331301 -0.361781 0.362045 16.421464 3.074175 5.055333 6.428928 0.000000 0.000000 0.000000 11.256323 -6.253047 27.755024 2.148345 -0.702892 -4.345514 4.694431 1.853858 14.208758 4.331968 -2.036425 -8.465860 0.000000 0.000000 0.000000 -7.552303 -6.695960 1.701627 -56.758584 -20.454164 1.936717 -44.693311 -65.083501 32.215317 0.000000 0.000000 0.000000 0.391521 13.775664 5.713522 36.682259 49.934234 11.056430 -33.364335 39.423001 -7.971456 0.000000 0.000000 0.000000 
-0.005035 0.940882 -0.002318 5.399807 11.352421 27.290568 5.303830 -2.376835 -27.483444 0.647376 -0.156294 2.187435 3.018322 12.199628 15.630454 0.000000 0.000000 0.000000 -11.568313 -1.488268 -41.063703 -0.704628 0.428136 16.541156 3.321824 5.773717 6.174379 0.000000 0.000000 0.000000 11.199676 -6.314508 27.889974 2.289441 -0.733313 -4.658965 4.327645 1.295397 14.376565 3.790517 -1.872213 -7.062541 0.000000 0.000000 0.000000 -8.086250 -7.347145 1.988170 -53.728898 -21.297775 2.118525 -47.247751 -65.969060 34.635217 0.000000 0.000000 0.000000 0.719996 14.052171 5.858492 35.522272 48.469557 9.937549 -32.130463 41.969611 -8.204036 0.000000 0.000000 0.000000 
-0.005666 0.940838 -0.003541 5.162728 11.655726 27.415607 5.071666 -2.463246 -27.834079 1.029573 -0.229475 2.860732 2.885336 11.940014 15.198856 0.000000 0.000000 0.000000 -11.371276 -1.523360 -41.516736 -0.986605 0.498719 17.153088 3.836978 6.929981 6.174628 0.000000 0.000000 0.000000 11.444798 -6.374010 27.613021 2.193319 -0.751474 -3.870790 4.363405 1.703586 13.320570 3.045128 -1.614780 -4.899409 0.000000 0.000000 0.000000 -8.211148 -7.960487 2.172870 -52.006937 -22.972692 2.798235 -50.010540 -65.689665 36.323667 0.000000 0.000000 0.000000 1.455587 13.616753 5.815919 34.978090 46.748164 9.179597 -30.493514 45.520474 -8.343854 0.000000 0.000000 0.000000 
-0.005819 0.939433 -0.004855 5.061250 12.319007 27.354941 4.656130 -2.617990 -28.333891 1.655585 -0.321406 3.298375 2.590280 11.593265 15.064316 0.000000 0.000000 0.000000 -11.305358 -1.674125 -41.826532 -0.947786 0.468795 17.670997 3.884142 6.869003 6.569002 0.000000 0.000000 0.000000 11.321885 -6.352865 27.490157 2.290561 -0.780040 -3.994560 4.360720 1.522391 13.666594 2.191871 -0.927093 -5.296473 0.000000 0.000000 0.000000 -6.332016 -9.033095 2.766564 -50.809492 -25.215934 3.530238 -51.631051 -67.470861 38.697357 0.000000 0.000000 0.000000 1.311342 14.106900 6.005390 35.586388 45.289603 8.907131 -29.594841 47.220887 -8.348900 0.000000 0.000000 0.000000 
-0.005448 0.939644 -0.006209 4.659956 12.813422 27.177934 4.766696 -2.614828 -28.211457 1.507019 -0.313755 3.437562 2.741953 11.577837 14.016870 0.000000 0.000000 0.000000 -10.823345 -1.586201 -41.765349 -1.058986 0.485315 18.268696 3.366067 6.034297 5.894699 0.000000 0.000000 0.000000 11.220783 -6.360841 27.555775 2.227533 -0.753336 -4.001586 4.250672 1.782600 13.104689 0.705911 -0.036637 -3.541897 0.000000 0.000000 0.000000 -6.442993 -10.621798 3.387337 -46.999387 -28.288913 4.301575 -49.313770 -69.604395 38.277554 0.000000 0.000000 0.000000 2.994685 14.607422 6.514615 33.411062 43.204711 7.395429 -26.392361 48.902753 -7.369714 0.000000 0.000000 0.000000 
-0.004614 0.939858 -0.007220 4.402296 13.438254 26.936383 4.978939 -2.634544 -28.343251 1.342300 -0.310301 3.677123 2.363367 11.002072 13.777608 0.000000 0.000000 0.000000 -10.525344 -1.579570 -41.576573 -0.895822 0.419428 18.039837 3.141753 5.315168 6.456688 0.000000 0.000000 0.000000 10.842438 -6.225749 27.408036 2.150579 -0.709661 -4.146923 4.296450 1.373075 12.856842 -0.869992 1.181841 -4.098645 0.000000 0.000000 0.000000 -5.491350 -11.722663 3.920782 -43.876569 -32.035514 5.181500 -44.302472 -72.319073 36.246925 0.000000 0.000000 0.000000 2.697760 15.276726 6.718556 32.967265 41.338196 6.725994 -23.551557 48.977174 -6.316319 0.000000 0.000000 0.000000 
-0.003489 0.940733 -0.007860 4.274116 13.578621 26.725416 4.772490 -2.616968 -27.866483 1.607957 -0.329479 3.507243 1.952183 10.254579 13.448588 0.000000 0.000000 0.000000 -10.480657 -1.552226 -41.179492 -0.868184 0.406041 17.860180 2.556125 3.865460 6.874897 0.000000 0.000000 0.000000 10.104317 -5.802287 26.794119 2.437882 -0.831231 -4.021098 3.640034 0.972754 12.162098 -2.430864 2.375232 -5.067515 0.000000 0.000000 0.000000 -4.680321 -12.735726 4.387965 -40.542924 -35.490713 5.740930 -32.453027 -74.475877 28.221712 0.000000 0.000000 0.000000 2.489774 15.760653 6.850031 32.671054 39.301066 6.092589 -19.835761 49.611948 -4.938380 0.000000 0.000000 0.000000 
